<svg width="17" height="17" viewBox="0 0 17 17" fill="none" xmlns="http://www.w3.org/2000/svg">
<g clip-path="url(#clip0)">
<path d="M4.42675 13.1262C3.29276 13.1262 2.28406 12.4002 1.91778 11.3192L1.89301 11.2378C1.80663 10.9515 1.77044 10.7108 1.77044 10.4699V5.64031L0.0520046 11.3766C-0.169009 12.2203 0.334627 13.095 1.17964 13.3281L12.1329 16.2614C12.2696 16.2968 12.4063 16.3138 12.541 16.3138C13.2464 16.3138 13.891 15.8456 14.0717 15.1556L14.7099 13.1262H4.42675Z" fill="white"/>
<path d="M6.37475 5.68856C7.15608 5.68856 7.79136 5.05315 7.79136 4.27182C7.79136 3.49049 7.15608 2.85507 6.37475 2.85507C5.59342 2.85507 4.95801 3.49049 4.95801 4.27182C4.95801 5.05315 5.59342 5.68856 6.37475 5.68856Z" fill="white"/>
<path d="M15.2291 0.730015H4.60384C3.62783 0.730015 2.83301 1.52483 2.83301 2.50098V10.2927C2.83301 11.2689 3.62783 12.0637 4.60384 12.0637H15.2291C16.2052 12.0637 17.0001 11.2689 17.0001 10.2927V2.50098C17.0001 1.52483 16.2052 0.730015 15.2291 0.730015ZM4.60384 2.14676H15.2291C15.4247 2.14676 15.5833 2.30539 15.5833 2.50098V7.52956L13.3457 4.91851C13.1083 4.64017 12.7647 4.4914 12.3957 4.48297C12.0288 4.48504 11.6846 4.64795 11.4494 4.92992L8.81854 8.08767L7.96146 7.23267C7.47702 6.74823 6.68856 6.74823 6.20476 7.23267L4.24975 9.18703V2.50098C4.24975 2.30539 4.40838 2.14676 4.60384 2.14676Z" fill="white"/>
</g>
<defs>
<clipPath id="clip0">
<rect width="17" height="17" fill="white"/>
</clipPath>
</defs>
</svg>
