<svg width="14" height="14" viewBox="0 0 14 14" fill="none" xmlns="http://www.w3.org/2000/svg">
<path d="M0.954683 11.7725H3.182V13.6819C3.182 13.7748 3.21172 13.8508 3.27152 13.9103C3.33115 13.9701 3.40739 14 3.50027 14H5.16069C5.24687 14 5.32143 13.9701 5.38442 13.9103C5.4474 13.8508 5.4788 13.7747 5.4788 13.6819V11.7725H10.5001C10.5928 11.7725 10.669 11.743 10.7288 11.6832C10.7886 11.6234 10.8183 11.5473 10.8183 11.4544V10.1816C10.8183 10.0893 10.7886 10.0127 10.7288 9.95322C10.6692 9.89339 10.5928 9.86348 10.5001 9.86348H5.47863V8.69013H8.85931C10.185 8.69013 11.267 8.28618 12.1058 7.47713C12.9442 6.66893 13.3636 5.62492 13.3636 4.34507C13.3636 3.06606 12.9442 2.02203 12.1058 1.213C11.2672 0.404774 10.185 0 8.85931 0H3.5001C3.4072 0 3.33113 0.0298867 3.27135 0.0893581C3.21172 0.149159 3.18183 0.225728 3.18183 0.318105V6.57252H0.954683C0.861812 6.57252 0.78571 6.60394 0.725936 6.6669C0.666328 6.72988 0.636414 6.80445 0.636414 6.89059V8.37197C0.636414 8.46487 0.666136 8.54097 0.725936 8.60075C0.785737 8.66058 0.861648 8.69011 0.954683 8.69011H3.182V9.86345H0.954683C0.861812 9.86345 0.78571 9.89337 0.725936 9.9532C0.666328 10.0126 0.636414 10.0891 0.636414 10.1816V11.4544C0.636414 11.5473 0.666136 11.6234 0.725936 11.6831C0.78571 11.743 0.861785 11.7725 0.954683 11.7725ZM5.47863 2.11811H8.66045C9.36302 2.11811 9.92969 2.32353 10.3607 2.73451C10.7915 3.14551 11.007 3.68262 11.007 4.34523C11.007 5.00817 10.7915 5.54545 10.3607 5.95596C9.92969 6.36729 9.36299 6.57271 8.66045 6.57271H5.47863V2.11811Z" fill="white"/>
</svg>
